<svg height="512pt" viewBox="-58 0 512 512" width="512pt" xmlns="http://www.w3.org/2000/svg"><path d="m325.527344 195.867188c0 35.226562 28.558594 63.785156 63.789062 63.785156v-135.734375c0-50.824219-41.203125-92.023438-92.027344-92.023438h-15.226562zm0 0" fill="#c10000"/><path d="m197.53125 0-20.015625 191.929688c49 0 133.679687-18.929688 148.015625-41.726563v-22.203125c0-70.691406-57.308594-128-128-128zm0 0" fill="#ff4c04"/><path d="m197.53125 0c-70.691406 0-128 57.308594-128 128v15.480469c14.332031 18.855469 83 48.449219 128 48.449219zm0 0" fill="#ff9100"/><path d="m395.058594 391.222656c0-57.066406-46.261719-103.328125-103.328125-103.328125h-114.214844l20.015625 224.105469h108.113281l15-10.007812 15 10.007812h59.414063zm0 0" fill="#005fe1"/><path d="m103.332031 287.894531c-57.070312 0-103.332031 46.261719-103.332031 103.328125v120.777344h59.417969l15-10.007812 15 10.007812h108.113281v-224.105469zm0 0" fill="#0fa9dd"/><path d="m197.53125 395.109375c32.792969 0 59.378906-26.582031 59.378906-59.378906v-47.839844h-79.394531zm0 0" fill="#faa68e"/><path d="m138.148438 335.730469c0 32.792969 26.585937 59.378906 59.382812 59.378906v-107.214844h-59.382812zm0 0" fill="#ffcdbe"/><path d="m278.03125 164.632812c-28.90625 3.292969-56.71875-2.695312-80.5-15.5625l-20.015625 72.597657 20.015625 98.117187c70.691406 0 128-57.308594 128-128v-41.582031c-14.414062 7.46875-30.410156 12.484375-47.5 14.429687zm0 0" fill="#ffcdbe"/><path d="m143.625 96.484375c-18.421875 22.800781-44.128906 39.738281-74.09375 46.996094v48.304687c0 70.691406 57.304688 128 128 128v-170.714844c-22.355469-12.089843-41.148438-30.261718-53.90625-52.585937zm0 0" fill="#ffeee5"/><path d="m59.417969 421.636719h30v90.363281h-30zm0 0" fill="#005fe1"/><path d="m305.644531 421.636719h30v90.363281h-30zm0 0" fill="#00429d"/></svg>