<svg height="511pt" viewBox="-58 1 511 511.999" width="511pt" xmlns="http://www.w3.org/2000/svg"><path d="m395.558594 391.222656c0-57.066406-46.261719-103.332031-103.332032-103.332031h-114.21875l20.019532 224.109375h108.113281l15-10.011719 15.003906 10.011719h59.414063zm0 0" fill="#ff5e93"/><path d="m103.832031 287.890625c-57.070312 0-103.332031 46.265625-103.332031 103.332031v120.777344h59.414062l15.003907-10.011719 15 10.011719h108.109375v-224.109375zm0 0" fill="#f69ac7"/><path d="m306.140625 421.636719h30.003906v90.363281h-30.003906zm0 0" fill="#e50058"/><path d="m59.914062 421.636719h30.003907v90.363281h-30.003907zm0 0" fill="#ff5e93"/><path d="m292.226562 287.890625h-114.21875l20.019532 61.304687c8.421875 17.839844 26.585937 30.210938 47.585937 30.210938 28.996094 0 52.585938-23.589844 52.585938-52.585938v-38.753906c-1.976563-.109375-3.964844-.175781-5.972657-.175781zm0 0" fill="#e50058"/><path d="m103.832031 287.890625c-2.003906 0-3.996093.0625-5.972656.175781v38.753906c0 28.996094 23.589844 52.585938 52.585937 52.585938 21 0 39.164063-12.371094 47.582032-30.210938v-61.304687zm0 0" fill="#ff5e93"/><path d="m326.027344 128c0 35.226562 28.558594 63.785156 63.789062 63.785156v-67.867187c0-50.824219-41.203125-92.027344-92.027344-92.027344h-15.226562zm0 0" fill="#504541"/><path d="m113.496094 31.890625h-15.226563c-50.824219 0-92.027343 41.203125-92.027343 92.027344v67.867187c35.230468 0 63.789062-28.558594 63.789062-63.785156zm0 0" fill="#7f6d67"/><path d="m326.03125 137.894531v-9.894531c0-70.691406-57.308594-128-128.003906-128l-20.019532 207.332031c56.464844 1.914063 140.378907-43.796875 148.023438-69.4375zm0 0" fill="#2d2d2d"/><path d="m198.027344 0c-65.417969 0-119.371094 49.082031-127.054688 112.429688 12.03125 42.546874 66.976563 91.121093 124.136719 94.761718.972656.0625 1.945313.105469 2.917969.136719zm0 0" fill="#504541"/><path d="m248.199219 94.597656c-13.5 15.621094-30.671875 27.972656-50.171875 35.734375l-20.019532 68.671875 20.019532 120.78125c70.695312 0 128.003906-57.308594 128.003906-128v-53.890625c-30.941406-4.84375-58.25-20.636719-77.832031-43.296875zm0 0" fill="#f2d1a5"/><path d="m150.171875 139.46875c-29.828125 0-57.300781-10.089844-79.199219-27.039062-.617187 5.105468-.941406 10.300781-.941406 15.570312v63.785156c0 70.691406 57.304688 128 127.996094 128v-189.453125c-14.804688 5.890625-30.949219 9.136719-47.855469 9.136719zm0 0" fill="#fff2de"/></svg>