<svg height="512pt" viewBox="-58 0 512 512.00014" width="512pt" xmlns="http://www.w3.org/2000/svg"><path d="m395.058594 391.222656c0-57.066406-46.261719-103.328125-103.328125-103.328125h-114.214844l20.015625 224.105469h108.113281l15-10.007812 15 10.007812h59.414063zm0 0" fill="#6e76e5"/><path d="m197.53125 287.894531h-94.199219c-57.070312 0-103.332031 46.261719-103.332031 103.328125v120.777344h59.417969l15-10.007812 15 10.007812h108.113281zm0 0" fill="#8cbcff"/><path d="m59.417969 421.636719h30v90.363281h-30zm0 0" fill="#6e76e5"/><path d="m305.644531 421.636719h30v90.363281h-30zm0 0" fill="#3440db"/><path d="m256.910156 324.191406v-36.300781h-79.394531l20.015625 95.679687c32.792969 0 59.378906-26.585937 59.378906-59.378906zm0 0" fill="#faa68e"/><path d="m138.148438 324.191406c0 32.792969 26.585937 59.378906 59.382812 59.378906v-95.675781h-59.382812zm0 0" fill="#ffcdbe"/><path d="m325.53125 70.136719c0-25.691407-19.136719-47.359375-44.632812-50.535157l-83.367188-10.386718-20.015625 129.773437 148.015625-20.015625zm0 0" fill="#ff9100"/><path d="m126.753906.398438c-30.390625-3.785157-57.222656 19.910156-57.222656 50.535156v68.039062l128 20.015625v-129.773437zm0 0" fill="#ffd422"/><path d="m296.195312 118.972656c-24.765624 0-46.742187-11.9375-60.492187-30.367187h-38.171875l-20.015625 95.710937 20.015625 135.46875c32.398438 0 61.984375-12.046875 84.53125-31.894531 26.648438-23.453125 43.46875-57.8125 43.46875-96.105469v-72.8125zm0 0" fill="#ffcdbe"/><path d="m159.359375 88.605469c-13.753906 18.429687-35.730469 30.367187-60.496094 30.367187h-29.332031v72.8125c0 38.292969 16.820312 72.652344 43.46875 96.109375 22.546875 19.847657 52.128906 31.890625 84.53125 31.890625v-231.179687zm0 0" fill="#ffeee5"/></svg>