<svg height="512pt" viewBox="-58 0 512 512" width="512pt" xmlns="http://www.w3.org/2000/svg"><path d="m325.53125 128c0-70.691406-57.308594-128-128-128l-20.015625 153.773438 148.015625-20.015626zm0 0" fill="#804111"/><path d="m197.53125 0c-13.34375 0-26.207031 2.042969-38.300781 5.832031-.523438.164063-1.039063.351563-1.558594.523438l-20.015625 147.417969 59.875-20.015626zm0 0" fill="#bc5f19"/><path d="m69.53125 128v5.757812l88.140625 20.015626v-147.417969c-51.171875 16.753906-88.140625 64.871093-88.140625 121.644531zm0 0" fill="#e27726"/><path d="m69.53125 191.785156-46.082031 60.96875-.132813 12.210938c0 17.300781 10.542969 32.140625 25.554688 38.441406h148.660156v-111.621094zm0 0" fill="#e27726"/><path d="m325.53125 191.785156h-128v111.621094h148.65625c15.011719-6.300781 25.554688-21.140625 25.554688-38.441406v-12.152344zm0 0" fill="#804111"/><path d="m395.058594 391.222656c0-57.066406-46.261719-103.328125-103.328125-103.328125h-42.347657l-20.015624 112.050781 20.015624 112.054688h145.675782zm0 0" fill="#3f893c"/><path d="m249.382812 512v-224.105469h-71.867187l20.015625 224.105469zm0 0" fill="#e1d3ce"/><path d="m145.679688 512h51.851562v-224.105469h-51.851562l-20.019532 108.304688zm0 0" fill="#f5f0eb"/><path d="m103.332031 287.894531c-57.070312 0-103.332031 46.261719-103.332031 103.328125v120.777344h145.679688v-224.105469zm0 0" fill="#00dd80"/><path d="m197.53125 133.757812-20.015625 74.992188 20.015625 110.054688c70.578125 0 128-57.417969 128-128v-57.046876zm0 0" fill="#e3a76f"/><path d="m195.667969 133.757812c-16.390625 0-30.675781-9.175781-37.996094-22.660156-7.316406 13.484375-21.605469 22.660156-37.992187 22.660156h-50.148438v57.046876c0 70.582031 57.417969 128 128 128v-185.046876zm0 0" fill="#f2d1a5"/></svg>