<svg height="512pt" viewBox="-58 0 512 512" width="512pt" xmlns="http://www.w3.org/2000/svg"><path d="m322.273438 220.589844h-144.757813l20.015625 82.8125h148.65625c15.011719-6.300782 25.554688-21.136719 25.554688-38.4375v-22.785156c-19.542969 0-37.148438-8.308594-49.46875-21.589844zm0 0" fill="#c10000"/><path d="m72.785156 220.589844c-12.320312 13.28125-29.925781 21.589844-49.46875 21.589844v22.785156c0 17.300781 10.542969 32.140625 25.554688 38.441406h148.660156v-82.8125h-124.746094zm0 0" fill="#ff4c04"/><path d="m395.058594 391.222656c0-57.066406-46.261719-103.328125-103.328125-103.328125h-114.214844l20.015625 224.105469h108.113281l15-10.007812 15 10.007812h59.414063zm0 0" fill="#6e76e5"/><path d="m103.332031 287.894531c-57.070312 0-103.332031 46.261719-103.332031 103.328125v120.777344h59.417969l15-10.007812 15 10.007812h108.113281v-224.105469zm0 0" fill="#8cbcff"/><path d="m197.53125 0-20.015625 148.015625 148.015625-20.015625c0-70.691406-57.308594-128-128-128zm0 0" fill="#c10000"/><path d="m197.53125 0c-70.695312 0-128 57.308594-128 128l128 20.015625zm0 0" fill="#ff4c04"/><path d="m235.523438 128c-16.386719 0-30.675782-9.175781-37.992188-22.65625l-20.015625 88.324219 20.015625 125.253906c70.578125 0 128-57.417969 128-128v-62.921875zm0 0" fill="#ffcdbe"/><path d="m159.535156 128h-90.003906v62.921875c0 70.582031 57.417969 128 128 128v-213.578125c-7.320312 13.480469-21.605469 22.65625-37.996094 22.65625zm0 0" fill="#ffeee5"/><path d="m59.417969 400.375h30v111.625h-30zm0 0" fill="#6e76e5"/><path d="m305.644531 400.375h30v111.625h-30zm0 0" fill="#3440db"/></svg>