<svg height="512pt" viewBox="-58 0 511 512" width="512pt" xmlns="http://www.w3.org/2000/svg"><path d="m292.230469 287.894531h-94.199219l-20.015625 117.105469 20.015625 107h123.113281l74.414063-63.785156v-56.992188c0-57.066406-46.261719-103.328125-103.328125-103.328125zm0 0" fill="#0fa9dd"/><path d="m103.832031 287.894531c-57.070312 0-103.332031 46.261719-103.332031 103.328125v56.992188l74.414062 63.785156h123.117188v-224.105469zm0 0" fill="#00d7df"/><path d="m326.03125 128c0-70.691406-57.308594-128-128-128l-20.015625 193.589844c68.570313-6.621094 148.015625-55.699219 148.015625-55.699219zm0 0" fill="#ff4c04"/><path d="m198.03125 0c-65.183594 0-118.984375 48.722656-126.976562 111.734375 10.640624 29.929687 42.5 82.597656 111.976562 82.597656 5.035156 0 10.039062-.261719 15-.742187zm0 0" fill="#ff9100"/><path d="m.5 448.214844h74.414062v63.785156h-74.414062zm0 0" fill="#ffeee5"/><path d="m321.144531 448.214844h74.414063v63.785156h-74.414063zm0 0" fill="#ffcdbe"/><path d="m247.804688 94.777344c-13.390626 15.496094-30.429688 27.75-49.773438 35.449218l-20.015625 88.105469 20.015625 101.453125c70.691406 0 128-57.308594 128-128v-53.894531c-31.113281-4.617187-58.585938-20.386719-78.226562-43.113281zm0 0" fill="#ffcdbe"/><path d="m150.558594 139.289062c-30.019532 0-57.632813-10.300781-79.503906-27.554687-.675782 5.328125-1.023438 10.753906-1.023438 16.265625v63.785156c0 70.691406 57.304688 128 128 128v-189.558594c-14.6875 5.84375-30.703125 9.0625-47.472656 9.0625zm0 0" fill="#ffeee5"/></svg>