<svg height="512pt" viewBox="-58 0 512 512" width="512pt" xmlns="http://www.w3.org/2000/svg"><path d="m103.332031 287.894531c-57.070312 0-103.332031 46.261719-103.332031 103.328125v120.777344h112.992188l20.015624-110-20.015624-114.105469zm0 0" fill="#00dd80"/><path d="m395.058594 391.222656c0-57.066406-46.261719-103.328125-103.328125-103.328125h-9.664063l-20.015625 108.605469 20.015625 115.5h112.992188zm0 0" fill="#3f893c"/><path d="m282.066406 287.894531h-104.550781v116.132813c30.175781 0 86.015625-4.082032 104.550781-38.652344zm0 0" fill="#faa68e"/><path d="m112.992188 287.894531v77.480469c13.539062 41.125 84.539062 38.652344 84.539062 38.652344v-116.132813zm0 0" fill="#ffcdbe"/><path d="m282.066406 512v-146.625c-25.71875 11.949219-54.359375 18.636719-84.535156 18.636719l-20.015625 58.488281 20.015625 69.5zm0 0" fill="#e1d3ce"/><path d="m112.992188 365.375v146.625h84.539062v-127.988281c-30.179688 0-58.820312-6.6875-84.539062-18.636719zm0 0" fill="#f5f0eb"/><path d="m177.515625 71.804688 20.015625 247.980468c70.691406 0 128-57.308594 128-128v-99.964844zm0 0" fill="#ffcdbe"/><path d="m69.53125 91.820312v99.964844c0 70.691406 57.304688 128 128 128v-247.980468zm0 0" fill="#ffeee5"/><path d="m325.53125 59.929688c0-33.097657-26.832031-59.929688-59.929688-59.929688h-10.632812l-20.015625 45.910156 20.015625 45.910156h70.5625zm0 0" fill="#2d2d2d"/><path d="m254.96875 0h-57.4375l-20.015625 45.910156 20.015625 45.910156h57.4375zm0 0" fill="#504541"/><path d="m129.460938 0c-33.101563 0-59.929688 26.832031-59.929688 59.929688v31.890624h128v-91.820312zm0 0" fill="#7f6d67"/></svg>