<svg height="512pt" viewBox="-58 0 512 512" width="512pt" xmlns="http://www.w3.org/2000/svg"><path d="m0 391.222656v120.777344h74.414062l20.019532-110-20.019532-110c-42.992187 12.507812-74.414062 52.191406-74.414062 99.222656zm0 0" fill="#ffeee5"/><path d="m395.058594 391.222656c0-47.03125-31.421875-86.714844-74.414063-99.222656l-20.015625 105 20.015625 115h74.414063zm0 0" fill="#ffcdbe"/><path d="m320.644531 292c-9.175781-2.671875-18.878906-4.105469-28.914062-4.105469h-114.214844l20.015625 224.105469h123.113281zm0 0" fill="#736e6e"/><path d="m103.332031 287.894531c-10.039062 0-19.738281 1.433594-28.917969 4.105469v220h123.117188v-224.105469zm0 0" fill="#b4aaaa"/><path d="m197.53125 448.214844c32.792969 0 59.378906-26.585938 59.378906-59.378906v-100.941407h-79.394531zm0 0" fill="#faa68e"/><path d="m138.148438 388.835938c0 32.792968 26.585937 59.378906 59.382812 59.378906v-160.320313h-59.382812zm0 0" fill="#ffcdbe"/><path d="m177.515625 107.984375 20.015625 211.800781c70.691406 0 128-57.308594 128-128v-63.785156zm0 0" fill="#ffcdbe"/><path d="m69.53125 128v63.785156c0 70.691406 57.304688 128 128 128v-211.800781zm0 0" fill="#ffeee5"/><path d="m261.746094 17.253906-20.015625 60.246094 20.015625 50.5h63.785156c0-47.289062-25.648438-88.582031-63.785156-110.746094zm0 0" fill="#804111"/><path d="m261.746094 17.253906c-18.878906-10.96875-40.8125-17.253906-64.214844-17.253906l-20.015625 70 20.015625 58h64.214844zm0 0" fill="#bc5f19"/><path d="m197.53125 0c-23.316406 0-45.171875 6.238281-64 17.128906l-20.015625 63.371094 20.015625 47.5h64zm0 0" fill="#e27726"/><path d="m69.53125 128h64v-110.871094c-38.257812 22.132813-64 63.492188-64 110.871094zm0 0" fill="#bc5f19"/></svg>