<svg height="512pt" viewBox="-58 0 512 512.00001" width="512pt" xmlns="http://www.w3.org/2000/svg"><path d="m395.058594 391.222656c0-57.066406-46.261719-103.328125-103.328125-103.328125h-114.214844l20.015625 224.105469h108.113281l15-10.007812 15 10.007812h59.414063zm0 0" fill="#e1d3ce"/><path d="m103.332031 287.894531c-57.070312 0-103.332031 46.261719-103.332031 103.328125v120.777344h59.414062l15-10.007812 15 10.007812h108.117188v-224.105469zm0 0" fill="#f5f0eb"/><path d="m59.414062 423.117188h30v88.882812h-30zm0 0" fill="#e1d3ce"/><path d="m305.644531 423.117188h30v88.882812h-30zm0 0" fill="#b4aaaa"/><path d="m322.042969 98.230469c-13.421875-56.335938-64.070313-98.230469-124.511719-98.230469l-20.015625 165.335938s131.015625-15.667969 144.527344-67.105469zm0 0" fill="#784132"/><path d="m197.53125 0c-53.882812 0-99.980469 33.292969-118.863281 80.429688 7.074219 39.886718 63.828125 80.660156 118.863281 84.90625zm0 0" fill="#a65d4e"/><path d="m322.042969 98.230469c-4.207031.390625-8.464844.597656-12.773438.597656-30.429687 0-58.523437-10.007813-81.164062-26.917969-9.335938 6.972656-19.601563 12.769532-30.574219 17.179688l-20.015625 205.558594h96.199219c31.4375-23.324219 51.816406-60.710938 51.816406-102.863282v-63.785156c0-10.25-1.214844-20.21875-3.488281-29.769531zm0 0" fill="#e3a76f"/><path d="m146.941406 98.828125c-24.894531 0-48.214844-6.707031-68.273437-18.398437-5.890625 14.707031-9.136719 30.757812-9.136719 47.570312v63.785156c0 42.152344 20.375 79.542969 51.816406 102.863282h76.183594v-205.5625c-15.636719 6.28125-32.710938 9.742187-50.589844 9.742187zm0 0" fill="#f2d1a5"/><path d="m197.53125 319.785156c28.539062 0 54.894531-9.34375 76.183594-25.136718v-9.878907c0-42.074219-34.109375-76.183593-76.1875-76.183593l-20.011719 58.414062zm0 0" fill="#784132"/><path d="m121.347656 284.773438v9.875c21.285156 15.792968 47.640625 25.136718 76.179688 25.136718v-111.195312c-42.074219 0-76.179688 34.105468-76.179688 76.183594zm0 0" fill="#a65d4e"/><path d="m231.863281 398.570312v-30h-34.332031l-10.007812 15 10.007812 15zm0 0" fill="#b4aaaa"/><path d="m231.863281 462.355469v-30h-34.332031l-10.007812 15 10.007812 15zm0 0" fill="#b4aaaa"/><g fill="#e1d3ce"><path d="m163.195312 368.570312h34.335938v30h-34.335938zm0 0"/><path d="m163.195312 432.355469h34.335938v30h-34.335938zm0 0"/></g></svg>