<svg height="512pt" viewBox="-58 0 512 512" width="512pt" xmlns="http://www.w3.org/2000/svg"><path d="m395.058594 391.222656c0-44.335937-27.933594-82.125-67.15625-96.789062l-20.015625 112.066406 20.015625 105.5h67.15625zm0 0" fill="#e1d3ce"/><path d="m307.886719 289.152344-130.371094 20.015625 20.015625 202.832031h130.371094v-217.566406c-6.398438-2.394532-13.085938-4.191406-20.015625-5.28125zm0 0" fill="#c10000"/><path d="m87.175781 289.152344s0 0-.003906 0c-6.925781 1.089844-13.617187 2.886718-20.015625 5.28125l-20.015625 106.140625 20.015625 111.425781h130.375v-202.832031zm0 0" fill="#ff4c04"/><path d="m248.050781 394.203125 59.835938-105.050781c-5.265625-.828125-10.660157-1.257813-16.15625-1.257813h-114.214844l20.015625 31.890625zm0 0" fill="#ff4c04"/><path d="m197.53125 319.785156v-31.894531h-94.199219c-5.496093 0-10.890625.433594-16.15625 1.261719l59.835938 105.046875zm0 0" fill="#ff9100"/><path d="m322.042969 98.230469c-13.421875-56.335938-64.070313-98.230469-124.511719-98.230469l-20.015625 56.332031 20.015625 88.484375c.941406.070313 1.882812.132813 2.824219.183594 59.867187 3.25 112.175781-25 121.6875-46.769531zm0 0" fill="#504541"/><path d="m197.53125 0c-53.882812 0-99.980469 33.292969-118.863281 80.429688 8.363281 26.121093 63.871093 60.359374 118.863281 64.386718zm0 0" fill="#afa29d"/><path d="m322.042969 98.230469c-4.207031.390625-8.464844.597656-12.773438.597656-30.429687 0-58.523437-10.011719-81.164062-26.917969-9.335938 6.972656-19.601563 12.769532-30.574219 17.175782l-20.015625 76.4375 20.015625 154.261718c70.691406 0 128-57.308594 128-128v-63.785156c0-10.25-1.214844-20.21875-3.488281-29.769531zm0 0" fill="#ffcdbe"/><path d="m146.941406 98.828125c-24.894531 0-48.214844-6.707031-68.273437-18.398437-5.890625 14.707031-9.136719 30.757812-9.136719 47.570312v63.785156c0 70.691406 57.304688 128 128 128v-230.699218c-15.636719 6.28125-32.710938 9.742187-50.589844 9.742187zm0 0" fill="#ffeee5"/><path d="m233.53125 238.28125c8.871094 0 17.527344-1.625 25.730469-4.835938l-10.9375-27.9375c-4.703125 1.839844-9.679688 2.773438-14.792969 2.773438-9.628906 0-18.960938-3.425781-26.285156-9.652344l-9.71875-8.261718-10.007813 23.957031 10.011719 14.089843c10.832031 6.417969 23.269531 9.867188 36 9.867188zm0 0" fill="#2d2d2d"/><path d="m161.527344 208.28125c-5.113282 0-10.089844-.933594-14.792969-2.773438l-10.9375 27.9375c8.203125 3.210938 16.859375 4.835938 25.730469 4.835938 12.730468 0 25.167968-3.449219 36-9.867188v-38.046874l-9.714844 8.261718c-7.324219 6.226563-16.65625 9.652344-26.285156 9.652344zm0 0" fill="#504541"/><path d="m0 391.222656v120.777344h67.15625v-217.566406c-39.21875 14.664062-67.15625 52.453125-67.15625 96.789062zm0 0" fill="#efe2dd"/></svg>