<svg height="512pt" viewBox="-58 0 512 512" width="512pt" xmlns="http://www.w3.org/2000/svg"><path d="m298.25 288.101562c-2.15625-.132812-4.328125-.210937-6.519531-.210937h-114.21875l20.015625 224.109375h108.117187l15-10.007812 15 10.007812h59.414063v-120.777344c0-54.875-42.78125-99.753906-96.808594-103.121094zm0 0" fill="#00dd80"/><path d="m96.8125 288.101562c2.15625-.132812 4.328125-.210937 6.519531-.210937h94.199219v224.109375h-108.113281l-15-10.007812-15 10.007812h-59.417969v-120.777344c0-54.875 42.78125-99.753906 96.8125-103.121094zm0 0" fill="#ccfc5c"/><path d="m272.058594 287.894531h-94.542969l20.011719 139.152344zm0 0" fill="#736e6e"/><path d="m122.996094 287.894531h74.53125v139.152344zm0 0" fill="#b4aaaa"/><path d="m59.414062 421.636719h30v90.363281h-30zm0 0" fill="#00dd80"/><path d="m305.644531 421.636719h30v90.363281h-30zm0 0" fill="#3f893c"/><path d="m339 45.253906c4.070312-23.644531-14.136719-45.253906-38.128906-45.253906h-103.34375l-20.015625 143.492188 148.019531-20.015626zm0 0" fill="#ff9100"/><path d="m94.1875 0c-23.992188 0-42.199219 21.609375-38.125 45.253906l13.46875 78.222656h.09375l127.902344 20.015626v-143.492188zm0 0" fill="#ffd422"/><path d="m247.078125 84.097656h-49.550781l-20.015625 98.785156 20.015625 136.902344h.003906c70.691406 0 128-57.308594 128-128v-68.308594c-32.117188 0-60.617188-15.476562-78.453125-39.378906zm0 0" fill="#ffcdbe"/><path d="m148.074219 84.097656c-17.835938 23.902344-46.335938 39.378906-78.449219 39.378906h-.09375v68.308594c0 70.691406 57.304688 128 127.996094 128v-235.6875zm0 0" fill="#ffeee5"/></svg>