<svg height="512pt" viewBox="-43 0 512 512" width="512pt" xmlns="http://www.w3.org/2000/svg"><path d="m426.1875 213.09375c0-117.6875-95.40625-213.09375-213.09375-213.09375l-20.015625 353.976562h179.894531c33.121094-37.554687 53.214844-86.875 53.214844-140.882812zm0 0" fill="#ff9100"/><path d="m0 213.09375c0 54.007812 20.09375 103.328125 53.210938 140.882812h159.882812v-353.976562c-117.6875 0-213.09375 95.40625-213.09375 213.09375zm0 0" fill="#ffd422"/><path d="m410.621094 433.746094c0-57.066406-46.261719-103.328125-103.328125-103.328125h-114.214844l20.015625 181.582031h108.113281l15-10.007812 15 10.007812h59.414063zm0 0" fill="#6e76e5"/><path d="m118.894531 330.414062c-57.066406 0-103.332031 46.265626-103.332031 103.332032v78.253906h59.417969l15-10.007812 15 10.007812h108.113281v-181.585938zm0 0" fill="#8cbcff"/><path d="m340.269531 177.28125c-13.371093 4.621094-27.726562 7.140625-42.671875 7.140625-32.234375 0-61.730468-11.691406-84.503906-31.054687l-20.015625 98.933593 20.015625 110.007813c70.691406 0 128-57.308594 128-128v-42.523438c0-4.90625-.285156-9.742187-.824219-14.503906zm0 0" fill="#ffcdbe"/><path d="m128.585938 184.421875c-14.941407 0-29.296876-2.519531-42.671876-7.140625-.535156 4.761719-.820312 9.597656-.820312 14.503906v42.523438c0 70.691406 57.304688 128 128 128v-208.9375c-22.773438 19.359375-52.273438 31.050781-84.507812 31.050781zm0 0" fill="#ffeee5"/><path d="m74.980469 442.898438h30v69.101562h-30zm0 0" fill="#6e76e5"/><path d="m321.207031 442.898438h30v69.101562h-30zm0 0" fill="#3440db"/></svg>