<svg height="512pt" viewBox="-58 0 512 512" width="512pt" xmlns="http://www.w3.org/2000/svg"><path d="m395.058594 391.222656c0-45.25-29.089844-83.710937-69.589844-97.695312l-147.953125.039062 20.015625 218.433594h108.113281l15-10.007812 15 10.007812h59.414063zm0 0" fill="#ff4c04"/><path d="m69.351562 293.609375c-40.375 14.050781-69.351562 52.449219-69.351562 97.613281v120.777344h59.417969l15-10.007812 15 10.007812h108.113281v-218.433594zm0 0" fill="#ff9100"/><path d="m59.417969 453.53125h30v58.46875h-30zm0 0" fill="#ff4c04"/><path d="m305.644531 453.53125h30v58.46875h-30zm0 0" fill="#c10000"/><path d="m325.53125 128c0-70.691406-57.308594-128-128-128l-20.015625 243.695312 148.015625-20.015624zm0 0" fill="#faa68e"/><path d="m197.53125 0c-70.691406 0-128 57.308594-128 128v95.679688l128 20.015624zm0 0" fill="#ffcdbe"/><path d="m257.171875 223.679688c-11.394531-21.269532-33.824219-35.738282-59.640625-35.738282l-20.015625 92.390625 20.015625 124.59375h78.210938c27.496093 0 49.789062-22.289062 49.789062-49.785156v-131.460937zm0 0" fill="#e1d3ce"/><path d="m137.886719 223.679688h-68.355469v131.457031c0 27.496093 22.289062 49.789062 49.785156 49.789062h78.214844v-216.984375c-25.816406 0-48.25 14.46875-59.644531 35.738282zm0 0" fill="#f5f0eb"/></svg>