<svg height="512pt" viewBox="-58 0 512 512" width="512pt" xmlns="http://www.w3.org/2000/svg"><path d="m395.058594 391.222656c0-45.25-29.089844-83.710937-69.589844-97.695312l-147.953125.039062 20.015625 218.433594h108.113281l15-10.007812 15 10.007812h59.414063zm0 0" fill="#ff4c04"/><path d="m69.351562 293.609375c-40.375 14.050781-69.351562 52.449219-69.351562 97.613281v120.777344h59.417969l15-10.007812 15 10.007812h108.113281v-218.433594zm0 0" fill="#ff9100"/><path d="m320.804688 93.441406c-15.078126-53.902344-64.558594-93.441406-123.273438-93.441406l-20.015625 146.011719c58.566406 0 140.515625-36.011719 143.289063-52.570313zm0 0" fill="#804111"/><path d="m197.53125 0c-58.71875 0-108.195312 39.539062-123.277344 93.441406 8.277344 22.558594 64.710938 52.570313 123.277344 52.570313zm0 0" fill="#bc5f19"/><path d="m59.417969 442.898438h30v69.101562h-30zm0 0" fill="#ff4c04"/><path d="m305.644531 442.898438h30v69.101562h-30zm0 0" fill="#c10000"/><path d="m325.53125 128c0-11.976562-1.648438-23.5625-4.726562-34.558594-12.285157 3.835938-25.34375 5.910156-38.894532 5.910156-32.183594 0-61.640625-11.671874-84.382812-31.007812l-20.015625 175.351562 148.019531-20.015624zm0 0" fill="#e3a76f"/><path d="m113.148438 99.351562c-13.546876 0-26.609376-2.074218-38.894532-5.910156-3.074218 10.996094-4.722656 22.582032-4.722656 34.558594v95.679688l128 20.015624v-175.351562c-22.742188 19.335938-52.195312 31.007812-84.382812 31.007812zm0 0" fill="#f2d1a5"/><path d="m257.171875 223.679688c-11.394531-21.269532-33.824219-35.738282-59.640625-35.738282l-20.015625 105.625 20.015625 132.621094c70.691406 0 128-57.308594 128-128v-74.507812zm0 0" fill="#804111"/><path d="m137.886719 223.679688h-68.355469v74.507812c0 70.691406 57.304688 128 128 128v-238.246094c-25.816406 0-48.25 14.46875-59.644531 35.738282zm0 0" fill="#bc5f19"/></svg>