<svg height="512pt" viewBox="-58 0 512 512" width="512pt" xmlns="http://www.w3.org/2000/svg"><path d="m261.316406 63.785156c0-35.226562-28.558594-63.785156-63.785156-63.785156l-20.015625 99.683594 81.804687-20.015625c1.304688-5.078125 1.996094-10.398438 1.996094-15.882813zm0 0" fill="#ffd422"/><path d="m197.53125 0c-35.230469 0-63.785156 28.558594-63.785156 63.785156 0 5.484375.691406 10.804688 1.992187 15.882813l61.792969 20.015625zm0 0" fill="#ffeb99"/><path d="m325.429688 186.910156c-2.5625-68.429687-58.839844-123.125-127.898438-123.125l-20.015625 172.480469zm0 0" fill="#ff9100"/><path d="m197.53125 63.785156c-69.0625 0-125.335938 54.695313-127.898438 123.125l127.898438 49.355469zm0 0" fill="#ffd422"/><path d="m117.941406 423.261719-20.015625-92.707031c-54.554687 2.8125-97.925781 47.9375-97.925781 103.191406v78.253906h63.785156zm0 0" fill="#ffeee5"/><path d="m297.132812 330.554688-20.015624 92.707031 54.15625 88.738281h63.785156v-78.253906c0-55.253906-43.371094-100.378906-97.925782-103.191406zm0 0" fill="#ffcdbe"/><path d="m297.132812 423.261719v-92.707031c-1.789062-.089844-3.589843-.140626-5.402343-.140626h-114.214844l20.015625 181.585938h133.742188c0-36.9375-13.542969-69.507812-34.140626-88.738281zm0 0" fill="#c10000"/><path d="m103.332031 330.414062c-1.8125 0-3.613281.050782-5.40625.140626v92.707031c-20.597656 19.230469-34.140625 51.796875-34.140625 88.738281h133.746094v-181.585938zm0 0" fill="#ff4c04"/><path d="m275.3125 186.910156c-16.378906 0-30.652344-9.167968-37.964844-22.636718-7.3125 13.46875-21.589844 22.636718-37.964844 22.636718h-1.851562l-20.015625 74.675782 20.015625 97.308593c70.523438 0 127.898438-57.375 127.898438-127.898437v-44.085938zm0 0" fill="#ffcdbe"/><path d="m69.632812 186.910156v44.085938c0 70.523437 57.375 127.898437 127.898438 127.898437v-171.984375zm0 0" fill="#ffeee5"/></svg>