<svg height="512pt" viewBox="-58 0 512 512" width="512pt" xmlns="http://www.w3.org/2000/svg"><path d="m395.058594 391.222656c0-47.03125-31.421875-86.714844-74.414063-99.222656l-20.015625 122.332031 20.015625 97.667969h74.414063zm0 0" fill="#784132"/><path d="m320.644531 292c-9.175781-2.671875-18.878906-4.105469-28.914062-4.105469h-114.214844l20.015625 224.105469h123.113281zm0 0" fill="#b4aaaa"/><path d="m103.332031 287.894531c-10.039062 0-19.738281 1.433594-28.917969 4.105469l-20.015624 123 20.015624 97h123.117188v-224.105469zm0 0" fill="#e1d3ce"/><path d="m177.515625 287.894531 20.015625 139.109375c32.792969 0 59.378906-26.585937 59.378906-59.378906v-79.730469zm0 0" fill="#4d2c21"/><path d="m138.148438 287.894531v79.730469c0 32.792969 26.585937 59.378906 59.382812 59.378906v-139.109375zm0 0" fill="#784132"/><path d="m197.53125 319.785156c70.691406 0 128-57.308594 128-128v-85.476562l-148.015625-20.015625zm0 0" fill="#784132"/><path d="m69.53125 106.308594v85.476562c0 70.691406 57.304688 128 128 128v-233.492187zm0 0" fill="#a65d4e"/><path d="m0 391.222656v120.777344h74.414062v-220c-42.992187 12.507812-74.414062 52.195312-74.414062 99.222656zm0 0" fill="#a65d4e"/><path d="m197.53125 0-20.015625 53.15625 20.015625 53.152344h128v-106.308594zm0 0" fill="#2d2d2d"/><path d="m69.53125 0h128v106.308594h-128zm0 0" fill="#504541"/></svg>