<svg height="512pt" viewBox="-58 0 512 512" width="512pt" xmlns="http://www.w3.org/2000/svg"><path d="m304.328125 106.800781c0-58.984375-47.8125-106.800781-106.796875-106.800781l-20.015625 120h126.007813c.53125-4.324219.804687-8.730469.804687-13.199219zm0 0" fill="#504541"/><path d="m197.53125 0c-58.984375 0-106.800781 47.816406-106.800781 106.800781 0 4.46875.273437 8.875.808593 13.199219h105.992188zm0 0" fill="#7f6d67"/><path d="m395.058594 433.746094c0-57.066406-46.261719-103.332032-103.328125-103.332032h-114.214844l20.015625 181.585938h197.527344zm0 0" fill="#00d7df"/><path d="m103.332031 330.414062c-57.070312 0-103.332031 46.265626-103.332031 103.332032v78.253906h197.53125v-181.585938zm0 0" fill="#9ee2f8"/><path d="m292.699219 330.421875v38.921875c0 26.28125-21.304688 47.585938-47.585938 47.585938-26.277343 0-47.582031-21.304688-47.582031-47.585938l-20.015625-38.929688zm0 0" fill="#f5f0eb"/><path d="m102.359375 330.421875v38.921875c0 26.28125 21.304687 47.585938 47.585937 47.585938s47.585938-21.304688 47.585938-47.585938v-38.929688zm0 0" fill="#fff5f5"/><path d="m177.515625 171.769531 20.015625 190.539063c70.691406 0 128-57.308594 128-128v-42.523438zm0 0" fill="#a65d4e"/><path d="m69.53125 191.785156v42.523438c0 70.691406 57.304688 128 128 128v-190.539063zm0 0" fill="#c38778"/><path d="m197.53125 63.785156-20.015625 64 20.015625 64h128c0-70.691406-57.308594-128-128-128zm0 0" fill="#2d2d2d"/><path d="m197.53125 63.785156c-70.691406 0-128 57.308594-128 128h128zm0 0" fill="#504541"/></svg>