<svg height="512pt" viewBox="-58 0 511 512" width="512pt" xmlns="http://www.w3.org/2000/svg"><path d="m292.230469 287.894531h-114.214844l20.015625 224.105469h123.113281l74.414063-95.679688v-25.097656c0-57.066406-46.261719-103.328125-103.328125-103.328125zm0 0" fill="#2d2d2d"/><path d="m103.832031 287.894531c-57.070312 0-103.332031 46.261719-103.332031 103.328125v25.097656l74.414062 95.679688h123.117188v-224.105469zm0 0" fill="#504541"/><path d="m262.246094 72.605469-84.230469 10.570312 20.015625 236.609375c70.691406 0 128-57.308594 128-128v-48.738281zm0 0" fill="#ffcdbe"/><path d="m70.03125 112.160156v79.625c0 70.691406 57.304688 128 128 128v-236.609375zm0 0" fill="#ffeee5"/><path d="m321.144531 416.320312h74.414063v95.679688h-74.414063zm0 0" fill="#ffcdbe"/><path d="m.5 416.320312h74.414062v95.679688h-74.414062zm0 0" fill="#ffeee5"/><path d="m312.671875 143.046875h13.359375v-76.855469c0-35.75-28.347656-64.863281-63.785156-66.128906l-20.015625 39.605469 20.015625 52.953125c0 27.851562 22.574218 50.425781 50.425781 50.425781zm0 0" fill="#afa29d"/><path d="m262.246094.0625-64.214844-.0273438-20.015625 51.5781248 20.015625 51.578125 64.214844-10.570312zm0 0" fill="#736e6e"/><path d="m97.605469 0c-32.84375 0-59.46875 26.625-59.46875 59.46875 0 23.125 13.097656 42.804688 31.894531 52.679688v.011718c10.609375 5.570313 23.03125 8.023438 35.953125 6.183594l92.046875-15.152344v-103.1562498zm0 0" fill="#afa29d"/></svg>