<svg height="512pt" viewBox="-58 0 512 512" width="512pt" xmlns="http://www.w3.org/2000/svg"><path d="m325.53125 128c0-35.070312-14.109375-66.84375-36.957031-89.964844l-111.058594-.027344v195.054688l148.015625-20.015625zm0 0" fill="#f2d1a5"/><path d="m395.058594 391.222656c0-47.027344-31.421875-86.710937-74.414063-99.21875l-20.015625 109.007813 20.015625 110.988281h74.414063zm0 0" fill="#f2d1a5"/><path d="m320.644531 292.003906c-2.65625-.773437-5.351562-1.449218-8.089843-2.011718l-135.039063.027343 20.015625 221.980469h123.113281zm0 0" fill="#3f893c"/><path d="m82.230469 290.050781c-2.644531.546875-5.25 1.210938-7.816407 1.957031l-20.015624 107.9375 20.015624 112.054688h123.117188v-221.980469zm0 0" fill="#00dd80"/><path d="m0 391.222656v120.777344h74.414062v-219.992188c-42.988281 12.511719-74.414062 52.1875-74.414062 99.214844zm0 0" fill="#fff2de"/><path d="m106.546875 37.972656c-22.882813 23.125-37.015625 54.925782-37.015625 90.027344v85.046875h128v-175.042969zm0 0" fill="#fff2de"/><path d="m256.910156 367.625v-77.617188l-79.394531.011719 20.015625 136.984375c32.792969 0 59.378906-26.585937 59.378906-59.378906zm0 0" fill="#f2d1a5"/><path d="m138.148438 367.625c0 32.792969 26.585937 59.378906 59.382812 59.378906v-136.984375l-59.382812.015625zm0 0" fill="#fff2de"/><path d="m257.171875 213.046875c-11.394531-21.265625-33.824219-35.738281-59.640625-35.738281l-20.015625 84.335937 20.015625 100.757813c70.691406 0 128-57.308594 128-128v-21.355469zm0 0" fill="#784132"/><path d="m137.886719 213.046875h-68.355469v21.355469c0 70.691406 57.304688 128 128 128v-185.089844c-25.816406 0-48.25 14.46875-59.644531 35.734375zm0 0" fill="#a65d4e"/><path d="m288.574219 38.035156c-23.207031-23.480468-55.421875-38.035156-91.042969-38.035156l-20.015625 31.890625 20.015625 31.894531h.082031c33.359375 0 64.515625-9.425781 90.960938-25.75zm0 0" fill="#784132"/><path d="m197.53125 0c-35.589844 0-67.78125 14.527344-90.984375 37.972656 26.445313 16.351563 57.609375 25.796875 90.984375 25.8125zm0 0" fill="#a65d4e"/></svg>