<svg height="512pt" viewBox="-58 0 512 512" width="512pt" xmlns="http://www.w3.org/2000/svg"><path d="m317.492188 83.277344c-18.140626-48.636719-65.003907-83.277344-119.960938-83.277344l-20.023438 154.976562c57.433594 0 139.746094-40.011718 139.984376-71.699218zm0 0" fill="#784132"/><path d="m197.53125 0c-54.960938 0-101.824219 34.640625-119.964844 83.277344 8.269532 41.867187 62.53125 71.699218 119.964844 71.699218zm0 0" fill="#a65d4e"/><path d="m395.058594 391.222656c0-57.066406-46.261719-103.328125-103.332032-103.328125h-66.378906l20.019532 224.105469h149.691406zm0 0" fill="#736e6e"/><path d="m245.371094 512 20.019531-140.972656-20.019531-83.132813h-67.863282l20.023438 224.105469zm0 0" fill="#e1d3ce"/><path d="m245.371094 287.894531 71.882812 83.097657-71.882812 141.007812zm0 0" fill="#b4aaaa"/><path d="m149.691406 512h47.839844v-224.105469h-67.859375zm0 0" fill="#f5f0eb"/><path d="m103.332031 287.894531c-57.070312 0-103.332031 46.261719-103.332031 103.328125v120.777344h149.691406v-224.105469zm0 0" fill="#b4aaaa"/><path d="m149.691406 512-71.886718-141.007812 71.886718-83.097657zm0 0" fill="#e1d3ce"/><path d="m317.492188 83.277344c-10.191407 6.777344-22.417969 10.734375-35.574219 10.734375-16.148438 0-30.894531-5.960938-42.195313-15.792969-11.296875 9.832031-26.042968 15.792969-42.191406 15.792969l-20.023438 81.636719 20.023438 144.136718c70.691406 0 128-57.308594 128-128v-63.785156c0-15.730469-2.84375-30.800781-8.039062-44.722656zm0 0" fill="#faa68e"/><path d="m155.335938 78.21875c-11.296876 9.828125-26.042969 15.792969-42.195313 15.792969-13.15625 0-25.382813-3.957031-35.570313-10.734375-5.195312 13.921875-8.039062 28.988281-8.039062 44.722656v63.785156c0 70.691406 57.308594 128 128 128v-225.773437c-16.152344 0-30.898438-5.960938-42.195312-15.792969zm0 0" fill="#ffcdbe"/></svg>