<svg height="512pt" viewBox="-58 0 512 512" width="512pt" xmlns="http://www.w3.org/2000/svg"><path d="m69.527344 132.421875c-32.898438 16.140625-55.546875 49.964844-55.546875 89.082031v147.507813h183.550781v-236.589844zm0 0" fill="#7f6d67"/><path d="m381.078125 221.503906c0-39.117187-22.648437-72.945312-55.550781-89.082031h-127.996094v236.589844h183.546875zm0 0" fill="#504541"/><path d="m292.527344 287.902344-31.996094 149.050781 60.113281 75.046875h74.414063v-120.777344c0-56.800781-45.832032-102.890625-102.53125-103.320312zm0 0" fill="#f2d1a5"/><path d="m102.53125 287.902344 32 149.050781-60.117188 75.046875h-74.414062v-120.777344c0-56.800781 45.832031-102.890625 102.53125-103.320312zm0 0" fill="#fff2de"/><path d="m197.53125 0-20.015625 152.4375 148.015625-20.015625v-4.421875c0-70.691406-57.308594-128-128-128zm0 0" fill="#2d2d2d"/><path d="m197.53125 0c-70.695312 0-128 57.308594-128 128v4.421875l128 20.015625zm0 0" fill="#504541"/><path d="m292.527344 438.925781v-151.023437c-.265625 0-.53125-.007813-.800782-.007813h-114.210937l20.015625 224.105469h123.113281c0-30.417969-11.152343-57.238281-28.117187-73.074219zm0 0" fill="#0fa9dd"/><path d="m103.332031 287.894531c-.269531 0-.535156.007813-.800781.007813v151.023437c-16.964844 15.835938-28.117188 42.65625-28.117188 73.074219h123.117188v-224.105469zm0 0" fill="#00d7df"/><path d="m197.53125 319.785156c70.691406 0 128-57.308594 128-128v-59.363281h-128l-20.015625 75.246094zm0 0" fill="#f2d1a5"/><path d="m69.53125 132.421875v59.363281c0 70.691406 57.304688 128 128 128v-187.363281zm0 0" fill="#fff2de"/></svg>