<svg height="512pt" viewBox="-58 0 512 512" width="512pt" xmlns="http://www.w3.org/2000/svg"><path d="m395.058594 391.222656c0-49.933594-35.417969-91.59375-82.503906-101.230468l-135.042969.027343 20.019531 221.980469h108.113281l15-10.007812 15 10.007812h59.414063zm0 0" fill="#b4aaaa"/><path d="m82.230469 290.050781c-46.949219 9.738281-82.230469 51.335938-82.230469 101.171875v120.777344h59.414062l15-10.007812 15 10.007812h108.117188v-221.980469zm0 0" fill="#e1d3ce"/><path d="m316.390625 80.429688c-18.882813-47.136719-64.980469-80.429688-118.859375-80.429688l-20.015625 136.332031c109.679687 0 138.875-55.902343 138.875-55.902343zm0 0" fill="#ff4c04"/><path d="m73.019531 98.230469 124.511719 38.101562v-136.332031c-60.441406 0-111.09375 41.894531-124.511719 98.230469zm0 0" fill="#ff9100"/><path d="m316.390625 80.429688c-20.058594 11.691406-43.378906 18.398437-68.269531 18.398437-17.882813 0-34.957032-3.460937-50.589844-9.742187l-20.015625 178.917968 148.015625-44.324218v-95.679688c0-16.8125-3.25-32.863281-9.140625-47.570312zm0 0" fill="#f2d1a5"/><path d="m166.957031 71.910156c-22.640625 16.90625-50.734375 26.917969-81.164062 26.917969-4.308594 0-8.570313-.207031-12.773438-.597656-2.277343 9.550781-3.488281 19.519531-3.488281 29.769531v95.679688l128 38.332031v-172.925781c-10.972656-4.40625-21.238281-10.203126-30.574219-17.175782zm0 0" fill="#fff2de"/><path d="m257.171875 223.679688c-11.394531-21.269532-33.824219-35.738282-59.640625-35.738282l-20.015625 68.058594 20.015625 106.402344c70.691406 0 128-57.308594 128-128v-10.722656zm0 0" fill="#ff4c04"/><path d="m137.886719 223.679688h-68.355469v10.722656c0 70.691406 57.304688 128 128 128v-174.460938c-25.816406 0-48.25 14.46875-59.644531 35.738282zm0 0" fill="#ff9100"/><path d="m59.414062 400.375h30v111.625h-30zm0 0" fill="#b4aaaa"/><path d="m305.644531 400.375h30v111.625h-30zm0 0" fill="#736e6e"/></svg>