<svg height="512pt" viewBox="-58 0 512 512" width="512pt" xmlns="http://www.w3.org/2000/svg"><path d="m395.058594 433.746094c0-35.007813-17.414063-65.949219-44.050782-84.636719 0 0-96.753906 0-173.492187 0l20.015625 162.890625h197.527344zm0 0" fill="#e50058"/><path d="m44.050781 349.109375c-26.636719 18.6875-44.050781 49.628906-44.050781 84.636719v78.253906h197.53125v-162.890625c-76.742188 0-153.480469 0-153.480469 0zm0 0" fill="#ff5e93"/><path d="m83.578125 26.902344h113.953125v30h-113.953125zm0 0" fill="#f2d1a5"/><path d="m197.53125 26.902344h113.949219v30h-113.949219zm0 0" fill="#e3a76f"/><path d="m261.316406 63.785156c0-35.226562-28.558594-63.785156-63.785156-63.785156l-20.015625 99.683594 81.804687-20.015625c1.304688-5.078125 1.996094-10.398438 1.996094-15.882813zm0 0" fill="#504541"/><path d="m197.53125 0c-35.230469 0-63.785156 28.558594-63.785156 63.785156 0 5.484375.691406 10.804688 1.992187 15.882813l61.792969 20.015625zm0 0" fill="#7f6d67"/><path d="m324.667969 176.9375c-7.359375-63.695312-61.46875-113.152344-127.136719-113.152344l-20.015625 188.515625c58.175781-3.722656 134-58.011719 147.152344-75.363281zm0 0" fill="#2d2d2d"/><path d="m197.53125 63.785156c-70.691406 0-128 57.308594-128 128v9.898438c14.046875 16.648437 71.445312 54 127.566406 50.648437.144532-.007812.289063-.019531.433594-.03125zm0 0" fill="#504541"/><path d="m291.730469 330.414062h-114.214844l20.015625 95.628907c62.703125 0 118.472656-30.253907 153.476562-76.933594-16.78125-11.777344-37.222656-18.695313-59.277343-18.695313zm0 0" fill="#e3a76f"/><path d="m103.332031 330.414062c-22.058593 0-42.5 6.917969-59.28125 18.695313 35.003907 46.679687 90.773438 76.933594 153.476563 76.933594v-95.625h-94.195313zm0 0" fill="#f2d1a5"/><path d="m324.667969 176.9375c-21.914063 16.632812-49.242188 26.503906-78.875 26.503906-17.046875 0-33.332031-3.273437-48.261719-9.214844l-20.015625 66.027344 20.015625 102.054688c70.691406 0 128-57.304688 128-128v-42.523438c0-5.023437-.300781-9.976562-.863281-14.847656zm0 0" fill="#f2d1a5"/><path d="m146.945312 158.195312c-19.523437 22.589844-46.65625 38.410157-77.414062 43.488282v32.625c0 70.691406 57.304688 128 128 128v-168.082032c-19.660156-7.824218-36.976562-20.28125-50.585938-36.03125zm0 0" fill="#fff2de"/></svg>