<svg height="512pt" viewBox="-58 0 512 512.00002" width="512pt" xmlns="http://www.w3.org/2000/svg"><path d="m308.03125 289.171875c49.324219 7.816406 87.027344 50.53125 87.027344 102.050781v120.777344h-59.414063l-15-10.007812-15 10.007812h-108.113281v-192.214844zm0 0" fill="#005fe1"/><path d="m87.027344 289.171875c-49.320313 7.816406-87.027344 50.53125-87.027344 102.050781v120.777344h59.414062l15-10.007812 15 10.007812h108.117188v-192.214844zm0 0" fill="#0fa9dd"/><path d="m182.527344 376.097656h30v66.894532h-30zm0 0" fill="#e1d3ce"/><path d="m197.53125 395.050781 18.492188-107.15625h75.707031c5.546875 0 10.988281.441407 16.300781 1.28125l-16.300781 105.875zm0 0" fill="#efe2dd"/><path d="m261.53125 287.894531-64 107.257813v-107.257813zm0 0" fill="#faa68e"/><path d="m59.414062 442.992188h30v69.007812h-30zm0 0" fill="#005fe1"/><path d="m305.644531 442.992188h30v69.007812h-30zm0 0" fill="#00429d"/><path d="m197.527344 395.050781-18.492188-107.15625h-75.703125c-5.546875 0-10.992187.441407-16.300781 1.28125l16.300781 105.875zm0 0" fill="#fff5f5"/><path d="m133.53125 287.894531 63.996094 107.257813h.003906v-107.257813zm0 0" fill="#ffcdbe"/><path d="m197.53125 0-20.015625 138.988281 147.695313-20.015625c-4.636719-66.480468-60.023438-118.972656-127.679688-118.972656zm0 0" fill="#ff9100"/><path d="m197.53125 0c-67.65625 0-123.046875 52.492188-127.679688 118.972656l127.679688 20.015625zm0 0" fill="#ffd422"/><path d="m325.210938 118.972656h-29.015626c-24.765624 0-46.742187-11.9375-60.492187-30.367187h-38.171875l-20.015625 115.589843 20.015625 115.589844c70.691406 0 128-57.308594 128-128v-63.785156c0-3.035156-.113281-6.046875-.320312-9.027344zm0 0" fill="#ffcdbe"/><path d="m159.359375 88.605469c-13.753906 18.429687-35.730469 30.367187-60.496094 30.367187h-29.011719c-.207031 2.980469-.320312 5.992188-.320312 9.027344v63.785156c0 70.691406 57.304688 128 128 128v-231.179687zm0 0" fill="#ffeee5"/></svg>