<svg height="512pt" viewBox="-58 0 512 512" width="512pt" xmlns="http://www.w3.org/2000/svg"><path d="m197.53125 0-20.015625 347.890625 171.734375.003906c23.621094-9.972656 40.210938-33.339843 40.242188-60.589843l.039062-95.304688c0-106.039062-85.960938-192-192-192zm0 0" fill="#504541"/><path d="m197.53125 0c-106.039062 0-192 85.960938-192 192l.035156 95.304688c.03125 27.242187 16.609375 50.601562 40.21875 60.578124l151.746094.007813zm0 0" fill="#7f6d67"/><path d="m395.058594 433.746094c0-57.066406-46.261719-103.328125-103.328125-103.328125h-14.886719l-20.015625 97.566406 20.015625 84.015625h118.214844zm0 0" fill="#e50058"/><path d="m103.332031 330.414062c-57.070312 0-103.332031 46.265626-103.332031 103.332032v78.253906h118.214844l20.015625-84.015625-20.015625-97.570313zm0 0" fill="#ff5e93"/><path d="m276.84375 330.414062h-99.328125l20.015625 181.585938 79.3125-84.015625zm0 0" fill="#784132"/><path d="m118.214844 330.414062v97.570313l79.316406 84.015625v-181.585938zm0 0" fill="#a65d4e"/><path d="m176.675781 206.929688 148.753907-20.019532c-2.5625-68.429687-58.839844-123.125-127.898438-123.125zm0 0" fill="#2d2d2d"/><path d="m197.527344 63.785156c-69.058594 0-125.332032 54.695313-127.894532 123.125l127.894532 17.210938zm0 0" fill="#504541"/><path d="m235.492188 186.910156c-16.371094 0-30.648438-9.167968-37.960938-22.636718l-20.015625 95.394531 20.015625 101.367187c70.523438 0 127.898438-57.375 127.898438-127.898437v-46.226563zm0 0" fill="#a65d4e"/><path d="m197.53125 164.269531c-7.3125 13.472657-21.589844 22.640625-37.964844 22.640625h-89.933594v46.226563c0 70.523437 57.375 127.898437 127.898438 127.898437zm0 0" fill="#c38778"/><path d="m276.84375 512v-84.015625h-4.703125c-34.296875 0-63.570313 21.882813-74.609375 52.414063l-20.015625 16.601562 20.015625 15zm0 0" fill="#e1d3ce"/><path d="m122.917969 427.984375h-4.703125v84.015625h79.316406v-31.601562c-11.042969-30.53125-40.316406-52.414063-74.613281-52.414063zm0 0" fill="#f5f0eb"/></svg>