<svg height="512pt" viewBox="-58 0 512 512.00001" width="512pt" xmlns="http://www.w3.org/2000/svg"><path d="m395.058594 391.222656c0-54.875-42.78125-99.753906-96.8125-103.121094l-67.714844 41.566407-53.019531 86.746093 20.015625 95.585938h108.117187l15-10.007812 15 10.007812h59.414063zm0 0" fill="#005fe1"/><path d="m96.808594 288.101562c-54.027344 3.367188-96.808594 48.246094-96.808594 103.121094v120.777344h59.414062l15-10.007812 15 10.007812h108.113282v-95.585938l-39.65625-84.078124zm0 0" fill="#0fa9dd"/><path d="m59.414062 442.992188h30v69.007812h-30zm0 0" fill="#005fe1"/><path d="m305.644531 442.992188h30v69.007812h-30zm0 0" fill="#00429d"/><path d="m123.113281 287.894531-.582031 73.105469 74.996094 55.414062v-128.519531zm0 0" fill="#005fe1"/><path d="m271.945312 287.894531.582032 73.105469-74.996094 55.414062v-128.519531zm0 0" fill="#00429d"/><path d="m123.113281 287.894531h-9.773437c-11.925782 0-14.269532.070313-16.382813.199219l-.152343.003906-21.261719 85.792969 121.984375 42.523437zm0 0" fill="#f5f0eb"/><path d="m271.941406 287.894531h9.777344c11.925781 0 14.269531.070313 16.382812.199219l.152344.003906 21.261719 85.792969-121.988281 42.523437zm0 0" fill="#f5f0eb"/><path d="m317.441406 83.144531c-18.175781-48.566406-65-83.144531-119.910156-83.144531l-20.015625 156.332031c79.3125 0 133.015625-48.347656 139.925781-73.1875zm0 0" fill="#784132"/><path d="m197.53125 0c-54.910156 0-101.738281 34.578125-119.914062 83.144531 4.246093 24.839844 40.597656 73.1875 119.910156 73.1875h.003906zm0 0" fill="#a65d4e"/><path d="m317.441406 83.144531c-10.210937 6.847657-22.488281 10.851563-35.703125 10.851563-16.117187 0-30.832031-5.953125-42.105469-15.757813-11.273437 9.804688-25.988281 15.757813-42.101562 15.757813h-.003906l-20.015625 62.335937 20.015625 163.453125h.003906c70.691406 0 128-57.304687 128-128v-63.785156c0-15.78125-2.867188-30.894531-8.089844-44.855469zm0 0" fill="#e3a76f"/><path d="m155.425781 78.238281c-11.269531 9.804688-25.988281 15.757813-42.101562 15.757813-13.21875 0-25.496094-4.003906-35.707031-10.851563-5.222657 13.960938-8.085938 29.074219-8.085938 44.855469v63.785156c0 70.691406 57.304688 128 127.996094 128v-225.789062c-16.113282 0-30.828125-5.953125-42.101563-15.757813zm0 0" fill="#f2d1a5"/><path d="m248.324219 205.507812c-4.703125 1.84375-9.679688 2.773438-14.792969 2.773438-9.625 0-18.960938-3.425781-26.285156-9.652344l-9.714844-8.261718-10.007812 23.957031 10.007812 14.089843c10.832031 6.417969 23.269531 9.867188 36 9.867188 8.871094 0 17.527344-1.625 25.730469-4.835938zm0 0" fill="#4d2c21"/><path d="m187.8125 198.628906c-7.324219 6.226563-16.65625 9.652344-26.285156 9.652344-5.113282 0-10.089844-.933594-14.792969-2.773438l-10.9375 27.9375c8.203125 3.210938 16.859375 4.839844 25.730469 4.839844 12.730468 0 25.167968-3.449218 36-9.871094v-38.046874zm0 0" fill="#784132"/></svg>