<svg height="512pt" viewBox="-58 0 512 512.00001" width="512pt" xmlns="http://www.w3.org/2000/svg"><path d="m314.175781 290.335938c46.273438 10.25 80.882813 51.527343 80.882813 100.886718v120.777344h-59.414063l-15-10.007812-15 10.007812h-108.113281l-20.015625-204.089844zm0 0" fill="#00dd80"/><path d="m80.886719 290.335938c-46.277344 10.25-80.886719 51.527343-80.886719 100.886718v120.777344h59.414062l15-10.007812 15 10.007812h108.117188v-204.089844zm0 0" fill="#ccfc5c"/><path d="m59.414062 423.117188h30v88.882812h-30zm0 0" fill="#00dd80"/><path d="m305.644531 423.117188h30v88.882812h-30zm0 0" fill="#3f893c"/><path d="m260.804688 394.203125-63.273438-74.417969-20.015625-31.894531h114.214844c7.707031 0 15.214843.851563 22.441406 2.453125zm0 0" fill="#3f893c"/><path d="m134.253906 394.203125 63.277344-74.417969v-31.894531h-94.199219c-7.710937 0-15.21875.851563-22.445312 2.453125zm0 0" fill="#00dd80"/><path d="m324.6875 113.339844c-63.578125-56.671875-115.382812-85.003906-147.171875-85.003906l20.015625 291.449218c70.691406 0 128-57.308594 128-128v-63.785156c0-4.960938-.292969-9.851562-.84375-14.660156zm0 0" fill="#e3a76f"/><path d="m70.371094 113.339844c-.550782 4.808594-.839844 9.699218-.839844 14.660156v63.785156c0 70.691406 57.304688 128 128 128v-291.449218c-31.792969 0-63.582031 28.332031-127.160156 85.003906zm0 0" fill="#f2d1a5"/><path d="m324.6875 113.339844c-7.273438-63.789063-61.425781-113.339844-127.15625-113.339844l-20.015625 45.667969 20.015625 43.964843c22.703125 19.300782 52.109375 30.953126 84.246094 30.953126 15.035156 0 29.476562-2.554688 42.910156-7.246094zm0 0" fill="#4f2f25"/><path d="m197.53125 0c-65.734375 0-119.882812 49.550781-127.160156 113.339844 13.4375 4.691406 27.875 7.246094 42.910156 7.246094 32.136719 0 61.542969-11.652344 84.25-30.953126zm0 0" fill="#7d4b3b"/></svg>