<svg height="512pt" viewBox="-58 0 512 512" width="512pt" xmlns="http://www.w3.org/2000/svg"><path d="m0 433.746094v78.253906h63.785156l20.015625-83.667969-20.015625-90.070312c-37.445312 15.523437-63.785156 52.425781-63.785156 95.484375zm0 0" fill="#c38778"/><path d="m395.058594 433.746094c0-43.058594-26.339844-79.960938-63.785156-95.484375l-20.015626 86.871093 20.015626 86.867188h63.789062v-78.253906zm0 0" fill="#a65d4e"/><path d="m331.273438 512v-173.738281c-12.179688-5.050781-25.535157-7.84375-39.542969-7.84375h-114.214844l20.015625 181.582031zm0 0" fill="#00dd80"/><path d="m63.785156 338.261719v173.738281h133.746094v-181.585938h-94.199219c-14.011719 0-27.363281 2.796876-39.546875 7.847657zm0 0" fill="#ccfc5c"/><path d="m389.53125 192c0-106.039062-85.960938-192-192-192l-20.015625 257.371094h211.898437zm0 0" fill="#504541"/><path d="m197.53125 0c-106.039062 0-192 85.960938-192 192l.113281 65.371094h191.886719zm0 0" fill="#7f6d67"/><path d="m325.53125 191.785156c0-70.691406-57.308594-128-128-128l-20.015625 148.015625zm0 0" fill="#2d2d2d"/><path d="m197.53125 63.785156c-70.691406 0-128 57.308594-128 128l128 20.015625zm0 0" fill="#504541"/><path d="m197.53125 191.785156-20.015625 78.546875 20.015625 91.976563c70.691406 0 128-57.304688 128-128v-42.523438zm0 0" fill="#a65d4e"/><path d="m69.53125 191.785156v42.523438c0 70.691406 57.304688 128 128 128v-170.523438zm0 0" fill="#c38778"/></svg>